<svg width="122.498" height="157.564" xmlns="http://www.w3.org/2000/svg">

 <g>
  <title>background</title>
  <rect fill="none" id="canvas_background" height="402" width="582" y="-1" x="-1"/>
 </g>
 <g>
  <title fill="#ffffff">Layer 1</title>
  <path fill="#ffffff" id="path3993" d="m13.320862,119.545441l0,23.156006l5.906006,0l0,-6.031006l5.375,5.375l9.061981,0l-7.187988,-7.187988c0,0 5.17099,-0.083984 5.562012,-7.562012c0,-6.861023 -5.177002,-7.75 -11.156006,-7.75l-7.561005,0zm6.187012,6.281006l5.093994,0l0,4.125l-5.093994,0l0,-4.125z"/>
  <path fill="#ffffff" id="path3997" d="m45.070862,119.639435c-3.234009,-0.018982 -7.718994,0.281006 -7.718994,6.375l0,16.093994l6.061981,0l0,-3.937988l5.875,0l0,3.843994l6.093994,0l0,-16.875c0,-5.29303 -5.880981,-5.5 -9.030975,-5.5c-0.394012,0 -0.819,0.002991 -1.281006,0zm-1.562988,5.812012l5.688019,0l0,6.343994l-5.688019,0l0,-6.343994z"/>
  <rect fill="#ffffff" y="119.654441" x="61.456868" width="6.272" id="rect4001" height="22.152"/>
  <path fill="#ffffff" id="path4003" d="m74.297882,119.948456l0,22.151978l15.093994,0l0,-5.880981l-8.919006,0l0,-16.369019l-6.174988,0.098022z"/>
  <path fill="#ffffff" id="path4005" d="m109.387878,119.752411l0,5.979004l-10.096008,0l0,2.156006c0,0 2.059021,0 4.312012,0s6.958984,-0.098022 6.958984,6.959961c0,7.057007 -3.233978,7.449036 -9.800995,7.449036c-6.567993,0 -7.938995,0 -7.938995,0l0,-5.392029c0,0 6.371002,0 9.11499,0s2.896027,-0.893982 2.896027,-1.671997s-1.403015,-1.140991 -4.257019,-1.140991s-8.145996,-1.401978 -8.145996,-6.890991c0,-5.489014 2.743988,-7.547974 8.233002,-7.547974s8.723999,0.099976 8.723999,0.099976l0,0z"/>
  <path fill="#ffffff" id="path3966" d="m18.818878,112.98941l52.145996,0c0,0 -11.56601,-26.268982 -8.626007,-50.381012c2.94101,-24.112 21.956024,-35.090973 32.738007,-36.266998c10.781006,-1.177002 16.662994,5.489014 16.662994,5.489014l2.352997,-3.528992c0,0 -15.487,-15.683014 -35.090973,-13.917999c-19.604004,1.763977 -33.130005,14.701996 -41.559021,30.384979c-8.429993,15.684021 -13.330994,26.661011 -16.662994,43.127991s-1.960999,25.093018 -1.960999,25.093018z"/>
  <path fill="#ffffff" id="path3968" d="m8.429871,86.720428l10.194,0.783997l-1.765015,10.192993l-9.60498,-1.175964l1.175995,-9.801025z"/>
  <path fill="#ffffff" id="path3970" d="m24.504883,65.156433l2.744995,-7.644989l-9.018005,-3.529022l-2.939972,8.233002l9.212982,2.94101z"/>
  <path fill="#ffffff" id="path3972" d="m37.246857,38.887451l5.292999,-6.272003l-6.860992,-4.509003l-5.489014,6.076019l7.057007,4.704987z"/>
  <path fill="#ffffff" id="path3974" d="m51.164856,14.579437l4.704987,5.684998l6.469025,-3.725006l-4.705017,-5.292999l-6.468994,3.333008z"/>
  <path fill="#ffffff" id="path3976" d="m74.101868,8.110443l1.175995,5.686005l8.037994,-0.196014l-0.785004,-5.096985l-8.428986,-0.393005z"/>
  <path fill="#ffffff" id="path3978" d="m101.350861,14.187439l-0.196014,3.528015l5.489014,2.939972l1.175995,-1.763977l-6.468994,-4.70401z"/>
  <path fill="#ffffff" id="path3980" d="m100.173859,29.28244l0,2.940002l5.292999,0.588013l0,-2.353027l-5.292999,-1.174988z"/>
  <path fill="#ffffff" id="path3982" d="m83.315857,31.830444l2.548004,4.70401l3.725006,-2.940002l-0.783997,-3.137024l-5.489014,1.373016z"/>
  <path fill="#ffffff" id="path3984" d="m75.276855,37.908447l3.92099,5.881012l-2.352997,4.115997l-5.684998,-6.272003l4.117004,-3.725006z"/>
  <path fill="#ffffff" id="path3986" d="m67.436859,54.178436l-2.549011,5.097015l6.665009,5.685974l1.567993,-6.469971l-5.68399,-4.313019z"/>
  <path fill="#ffffff" id="path3988" d="m64.691864,72.017426l-0.391998,6.861023l8.233002,3.528992l-0.391998,-6.470001l-7.449005,-3.920013z"/>
  <path fill="#ffffff" id="path3990" d="m67.043854,96.326447l1.960999,7.057983l10.389008,0.588013l-3.725006,-7.645996l-8.625,0z"/>
 </g>
</svg>